<svg id="basketball-nba-svg" xmlns="http://www.w3.org/2000/svg">
  <g id="transformations">
    <g id="center">
      <line id="center-line" x1="47" y1="0" x2="47" y2="50" stroke="red" stroke-width="0.167"></line>
      <circle id="inner-center-circle" cx="47" cy="25" r="2" stroke="blue" stroke-width="0.167" fill="transparent"></circle>
      <circle id="outer-center-circle" cx="47" cy="25" r="6" stroke="blue" stroke-width="0.167" fill="transparent"></circle>
    </g>
    <g id="left-side">
      <path id="left-outer-arc" fill="transparent" stroke="green" stroke-width="0.167" d= "
        M 0 3
        L 14 3
        A 23.75 23.75 0 0 1 14 47
        L 0 47">
      </path>
      <path id="outer-hashes" stroke="red" stroke-width="0.167" d="
        M 28 0
        L 28 3
        M 28 50
        L 28 47">
      </path>
      <g id="inner-left-side">
        <path id="left-restricted-area" stroke="green" stroke-width="0.167" fill="transparent"
          d="
          M 4 21
          L 5.25 21
          A 4 4 0 0 1 5.25 29
          L 4 29">
        </path>
        <path id="left-outer-hashes" stroke="purple" stroke-width="0.167"
          d="
          M 0 14
          L 0.5 14
          M 7.083 17
          L 7.083 16.5
          M 7.917 16.5
          L 7.917 17
          M 11.083 17
          L 11.083 16.5
          M 14.25 16.5
          L 14.25 17
          M 0 36
          L 0.5 36
          M 7.083 33
          L 7.083 33.5
          M 7.917 33.5
          L 7.917 33
          M 11.083 33
          L 11.083 33.5
          M 14.25 33.5
          L 14.25 33"></path>
          <path id="left-circle-vertical" stroke="purple" stroke-width="0.167"
            d="
            M 13 20
            L 13 20.5
            M 13 30
            L 13 29.5"></path>
        <rect id ="left-inner-box" x="0" y="17" width="19" height="16" stroke="blue" stroke-width="0.167" fill="transparent"></rect>
        <path id="left-solid-arc" stroke="blue" stroke-width="0.167" fill="transparent" d="
          M 19 19
          A 6 6 0 0 1 19 31"></path>
          <path id="left-dashed-arc" stroke="red" stroke-width="0.167" fill="transparent" d="
            M 19 19
            A 6 6 0 0 0 19 31"
            stroke-dasharray="1.024 1.29 1.29 1.29 1.29 1.29 1.29 1.29 1.29 1.29 1.29 1.29 1.29 1.29 1.29 1.024"></path>
          <g id="left-hoop">
            <line x1="4" y1="22" x2="4" y2="28" stroke="orange" stroke-width="0.167">
            </line>
            <line x1="4" y1="25" x2="4.5" y2="25" stroke="orange" stroke-width="0.167">
            </line>
            <circle cx="5.25" cy="25" r="0.75" stroke="orange" stroke-width="0.167" fill="transparent"></circle>
          </g>
      </g>
    </g>
    <g id="right-side" transform="translate(94 50) rotate(180)">
      <path id="left-outer-arc" fill="transparent" stroke="green" stroke-width="0.167" d= "
        M 0 3
        L 14 3
        A 23.75 23.75 0 0 1 14 47
        L 0 47">
      </path>
      <path id="outer-hashes" stroke="red" stroke-width="0.167" d="
        M 28 0
        L 28 3
        M 28 50
        L 28 47">
      </path>
      <g id="inner-left-side">
        <path id="left-restricted-area" stroke="green" stroke-width="0.167" fill="transparent"
          d="
          M 4 21
          L 5.25 21
          A 4 4 0 0 1 5.25 29
          L 4 29">
        </path>
        <path id="left-outer-hashes" stroke="purple" stroke-width="0.167"
          d="
          M 0 14
          L 0.5 14
          M 7.083 17
          L 7.083 16.5
          M 7.917 16.5
          L 7.917 17
          M 11.083 17
          L 11.083 16.5
          M 14.25 16.5
          L 14.25 17
          M 0 36
          L 0.5 36
          M 7.083 33
          L 7.083 33.5
          M 7.917 33.5
          L 7.917 33
          M 11.083 33
          L 11.083 33.5
          M 14.25 33.5
          L 14.25 33"></path>
          <path id="left-circle-vertical" stroke="purple" stroke-width="0.167"
            d="
            M 13 20
            L 13 20.5
            M 13 30
            L 13 29.5"></path>
        <rect id ="left-inner-box" x="0" y="17" width="19" height="16" stroke="blue" stroke-width="0.167" fill="transparent"></rect>
        <path id="left-solid-arc" stroke="blue" stroke-width="0.167" fill="transparent" d="
          M 19 19
          A 6 6 0 0 1 19 31"></path>
          <path id="left-dashed-arc" stroke="red" stroke-width="0.167" fill="transparent" d="
            M 19 19
            A 6 6 0 0 0 19 31"
            stroke-dasharray="1.024 1.29 1.29 1.29 1.29 1.29 1.29 1.29 1.29 1.29 1.29 1.29 1.29 1.29 1.29 1.024"></path>
          <g id="left-hoop">
            <line x1="4" y1="22" x2="4" y2="28" stroke="orange" stroke-width="0.167">
            </line>
            <line x1="4" y1="25" x2="4.5" y2="25" stroke="orange" stroke-width="0.167">
            </line>
            <circle cx="5.25" cy="25" r="0.75" stroke="orange" stroke-width="0.167" fill="transparent"></circle>
          </g>
      </g>
    </g>
    <rect id="outside-perimeter" x="0" y="0" width="94" height="50" stroke="black" fill="transparent" stroke-width="0.167"></rect>
  </g>
</svg>
