<svg id="basketball-ncaa-svg" xmlns="http://www.w3.org/2000/svg" width="100%" viewBox=" -1 -1 96 52">
  <g id="transformations">
    <clipPath id="clipBorder">
      <rect x="0" y="0" width="94" height="50">
    </clipPath>
    <rect id="background" x="0" y="0" width="94" height="50" fill="#eacda6"></rect>
    <g id="center">
      <circle id="outer-center-circle" cx="47" cy="25" r="6" stroke="#4350db" stroke-width="0.167" fill="#e2b983"></circle>
      <line id="center-line" x1="47" y1="0" x2="47" y2="50" stroke="#2a1e99" stroke-width="0.167"></line>
      <circle id="inner-center-circle" cx="47" cy="25" r="2" stroke="#4350db" stroke-width="0.167" fill="transparent"></circle>
    </g>
    <g id="left-side">
      <path id="left-outer-arc" fill="#e2b983" stroke="#2a1e99" stroke-width="0.167" d="
        M 0 3.34
        L 9.86 3.34
        A 22.15 22.15 0 0 1 9.86 46.66
        L 0 46.66"></path>
      <path id="outer-hashes" stroke="#2a1e99" stroke-width="0.167" d="
        M 28 50
        L 28 47"></path>
      <g id="inner-left-side">
        <rect id="left-top-solid-hash" fill="#4350db" x="7" y="18.25" width="1" height="0.75"></rect>
        <rect id="left-bottom-solid-hash" fill="#4350db" x="7" y="31" width="1" height="0.75"></rect>
        <path
          id="left-outer-hashes"
          stroke="#4350db"
          stroke-width="0.167"
          d="
          M 0 16
          L 1 16
          M 11.083 19
          L 11.083 18.5
          M 14.25 18.5
          L 14.25 19
          M 17.42 18.5
          L 17.42 19
          M 0 34
          L 1 34
          M 11.083 31
          L 11.083 31.5
          M 14.25 31.5
          L 14.25 31
          M 17.42 31.5
          L 17.42 31"></path>
        <path id="left-solid-arc" stroke="#4350db" stroke-width="0.167" fill="#eacda6" d="
          M 19 19
          A 6 6 0 0 1 19 31"></path>
        <rect id="left-inner-box" x="0" y="19" width="19" height="12" stroke="#4350db" stroke-width="0.167" fill="#eacda6"></rect>
        <path id="left-restricted-area" stroke="#4350db" stroke-width="0.167" fill="transparent" d="
                    M 4 21
                    L 5.25 21
                    A 4 4 0 0 1 5.25 29
                    L 4 29"></path>
        <g id="left-hoop">
          <line x1="4" y1="22" x2="4" y2="28" stroke="#494949" stroke-width="0.167"></line>
          <line x1="4" y1="25" x2="4.5" y2="25" stroke="#494949" stroke-width="0.167"></line>
          <circle cx="5.25" cy="25" r="0.75" stroke="#494949" stroke-width="0.167" fill="transparent"></circle>
        </g>
      </g>
    </g>
    <g id="right-side" transform="translate(94 50) rotate(180)">
      <path id="right-outer-arc" fill="#e2b983" stroke="#2a1e99" stroke-width="0.167" d="
          M 0 3.34
          L 9.86 3.34
          A 22.15 22.15 0 0 1 9.86 46.66
          L 0 46.66"></path>
      <path id="outer-hashes" stroke="#2a1e99" stroke-width="0.167" d="
          M 28 0
          L 28 3"></path>
      <g id="inner-right-side">
        <rect id="right-top-solid-hash" fill="#4350db" x="7" y="18.25" width="1" height="0.75"></rect>
        <rect id="right-bottom-solid-hash" fill="#4350db" x="7" y="31" width="1" height="0.75"></rect>
        <path
          id="right-outer-hashes"
          stroke="#4350db"
          stroke-width="0.167"
          d="
            M 0 16
            L 1 16
            M 11.083 19
            L 11.083 18.5
            M 14.25 18.5
            L 14.25 19
            M 17.42 18.5
            L 17.42 19
            M 0 34
            L 1 34
            M 11.083 31
            L 11.083 31.5
            M 14.25 31.5
            L 14.25 31
            M 17.42 31.5
            L 17.42 31"></path>
        <path id="right-solid-arc" stroke="#4350db" stroke-width="0.167" fill="#eacda6" d="
            M 19 19
            A 6 6 0 0 1 19 31"></path>
        <rect id="right-inner-box" x="0" y="19" width="19" height="12" stroke="#4350db" stroke-width="0.167" fill="#eacda6"></rect>
        <path id="right-restricted-area" stroke="#4350db" stroke-width="0.167" fill="transparent" d="
                      M 4 21
                      L 5.25 21
                      A 4 4 0 0 1 5.25 29
                      L 4 29"></path>
        <g id="right-hoop">
          <line x1="4" y1="22" x2="4" y2="28" stroke="#494949" stroke-width="0.167"></line>
          <line x1="4" y1="25" x2="4.5" y2="25" stroke="#494949" stroke-width="0.167"></line>
          <circle cx="5.25" cy="25" r="0.75" stroke="#494949" stroke-width="0.167" fill="transparent"></circle>
        </g>
      </g>
    </g>
    <g id="outside-perimeter">
      <line x1="-0.4" y1="0" x2="94.4" y2="0" stroke="black" fill="transparent" stroke-width="0.67"></line>
      <line x1="94" y1="50" x2="94" y2="0" stroke="black" fill="transparent" stroke-width="0.67"></line>
      <line x1="94.4" y1="50" x2="-0.4" y2="50" stroke="black" fill="transparent" stroke-width="0.67"></line>
      <line x1="0" y1="0" x2="0" y2="50" stroke="black" fill="transparent" stroke-width="0.67"></line>
    </g>
    <path id="left-arc" fill="transparent" d="
        M 0 3.173
        L 9.86 3.173
        A 22.15 22.15 0 0 1 9.86 46.827
        L 0 46.827"></path>
    <path id="right-arc" transform="translate(94 50) rotate(180)" fill="transparent" d="
        M 0 3.173
        L 9.86 3.173
        A 22.15 22.15 0 0 1 9.86 46.827
        L 0 46.827"></path>
  </g>
</svg>
