<svg id="field-hockey-svg" xmlns="http://www.w3.org/2000/svg" width="100%" viewBox=" -1 -1 93.4 57">
  <g id="transformations">
    <clipPath id="clipBorder">
      <rect id="background" x="-0.3" width="92" y="-0.3" height="55.6"/>
    </clipPath>
    <rect id="background" x="0" width="91.4" y="0" height="55" fill="#036602"/>
    <line id="left-twenty-two-point-nine" x1="22.9" x2="22.9" y1="0" y2="55" stroke-width="0.075" stroke="white"/>
    <line id="left-goal-line" x1="0" x2="0" y1="25.67" y2="29.33" stroke-width="0.2" stroke="#ccc"/>
    <path id="left-solid-arcs" d="
    M 0 11.04
    A 14.63 14.63 0 0 1 14.63 25.67
    L 14.63 29.33
    A 14.63 14.63 1 0 1 0 43.96
    " stroke-width="0.075" stroke="white" fill="transparent" />
    <line x1="19.63" x2="19.63" y1="27.35" y2="27.65" stroke="red" stroke-width="0.05" />
    <path id="left-dashed-arcs" d="
    M 19.63 27.65
    L 19.63 25.67
    A 19.63 19.63 0 0 0 0 6.04
    M 19.63 27.35
    L 19.63 29.33
    A 19.63 19.63 0 0 1 0 48.96
    " stroke-width="0.075" stroke="white" fill="transparent" stroke-dasharray="0.3 3" />
    <circle id="left-penalty-dot" cx="6.475" cy="27.5" r="0.075" fill="white" />
    <path id="left-extras" d="
    M 14.63 0
    L 14.63 -0.3 
    M 14.63  55 
    L 14.63 55.3
    M 0 15.67
    L -0.3 15.67
    M 0 20.67
    L -0.3 20.67
    M 0 25.67
    L -0.15 25.67
    M 0 29.33
    L -0.15 29.33
    M 0 34.33
    L -0.3 34.33
    M 0 39.33
    L -0.3 39.33
    " 
    stroke-width="0.075" stroke="#ccc" fill="transparent" />
    <g transform="translate(91.4 55) rotate(180)">
      <line id="right-twenty-two-point-nine" x1="22.9" x2="22.9" y1="0" y2="55" stroke-width="0.075" stroke="white"/>
    <line id="right-goal-line" x1="0" x2="0" y1="25.67" y2="29.33" stroke-width="0.2" stroke="#ccc"/>
    <path id="right-solid-arcs" d="
    M 0 11.04
    A 14.63 14.63 0 0 1 14.63 25.67
    L 14.63 29.33
    A 14.63 14.63 1 0 1 0 43.96
    " stroke-width="0.075" stroke="white" fill="transparent" />
    <path id="right-dashed-arcs" d="
    M 19.63 27.65
    L 19.63 25.67
    A 19.63 19.63 0 0 0 0 6.04
    M 19.63 27.35
    L 19.63 29.33
    A 19.63 19.63 0 0 1 0 48.96
    " stroke-width="0.075" stroke="white" fill="transparent" stroke-dasharray="0.3 3" />
    <circle id="right-penalty-dot" cx="6.475" cy="27.5" r="0.075" fill="white" />
    <path id="right-extras" d="
    M 14.63 0
    L 14.63 -0.3 
    M 14.63  55 
    L 14.63 55.3
    M 0 15.67
    L -0.3 15.67
    M 0 20.67
    L -0.3 20.67
    M 0 25.67
    L -0.15 25.67
    M 0 29.33
    L -0.15 29.33
    M 0 34.33
    L -0.3 34.33
    M 0 39.33
    L -0.3 39.33
    " 
    stroke-width="0.075" stroke="#ccc" fill="transparent" />
      </g>
    <line id="center-line" x1="45.7" x2="45.7" y1="0" y2="55" stroke-width="0.075" stroke="white"/>
    <path id="outside-perimeter" d=" M 0.0325 0.0325 L 91.3675 0.0325 L 91.3675 54.9675 L 0.0325 54.9675 Z" stroke-width="0.075" stroke="#ccc" fill="transparent"/>
  </g>
</svg>
