<svg id="fistball-svg" xmlns="http://www.w3.org/2000/svg" width="100%" viewBox=" -1 -1 64 34">
  <g id="transformations">
    <clipPath id="clipBorder">
        <rect width="62" height="32" />
    </clipPath>
     <rect id="buffer-zone" width="62" height="32" fill="#036602" stroke="black" stroke-width="0.5" />
    <rect id="buffer-zone-shade" width="62" height="32" fill="black" opacity="0.15" />
      <g id="court">
        <path id="court-background" d="
          M 6 6
          L 56 6
          L 56 26
          L  6 26
          Z" fill="#036602" stroke="white" stroke-width="0.125"/>

        <line id="center-line-white" x1="31" y1="6" x2="31" y2="26" stroke="#dddddd" stroke-width="0.1"/>
        <circle id="center-line-pole-top" cx="31" cy="6" r="0.15" fill="#C8102e"/>
        <line id="center-line-red" x1="31" y1="6" x2="31" y2="26" stroke="#C8102e" stroke-width="0.1" stroke-dasharray="0.2"/>
        <circle id="center-line-pole-bottom" cx="31" cy="26" r="0.15" fill="#C8102e"/>
        <line id="left-serve-line" x1="28" y1="6" x2="28" y2="26" stroke="white" stroke-width="0.125"/>
        <line id="right-serve-line" x1="34" y1="6" x2="34" y2="26" stroke="white" stroke-width="0.125"/>

        <line id="left-top-referee-zone" x1="25" y1="0" x2="25" y2="6" stroke="white" stroke-width="0.125" stroke-dasharray="0.5"/>
        <line id="left-bottom-referee-zone" x1="25" y1="26" x2="25" y2="32" stroke="white" stroke-width="0.125" stroke-dasharray="0.5"/>
        <line id="right-top-referee-zone" x1="37" y1="0" x2="37" y2="6" stroke="white" stroke-width="0.125" stroke-dasharray="0.5"/>
        <line id="right-bottom-referee-zone" x1="37" y1="26" x2="37" y2="32" stroke="white" stroke-width="0.125" stroke-dasharray="0.5"/>
      </g>
        <rect id="buffer-zone-border" width="62" height="32" fill="transparent" stroke="black" stroke-width="0.5" />
              <path id="outside-perimeter" d="
          M 6 6
          L 56 6
          L 56 26
          L  6 26
        Z" fill="transparent" stroke="white" stroke-width="0.125"/>
  </g>
</svg>