<svg id ="floorball-svg" xmlns="http://www.w3.org/2000/svg" width="100%" viewBox=" -1 -1 42 22">
  <g id="transformations">
    <path id="background" d="
    M 0 3
    A 3 3 0 0 1 3 0
    L 37 0
    A 3 3 0 0 1 40 3
    L 40 17
    A 3 3 0 0 1 37 20
    L 3 20
    A 3 3 0 0 1 0 17
    L 0 3" fill="#2162b7"></path>
    <g id="center-markings">
      <path id="center-line" d="M 20 0 L 20 20" stroke="#fff" fill="transparent" stroke-width="0.05"></path>
      <circle id="center-dot" cx="20" cy="10" r="0.15" fill="#fff"/>
    </g>
    <g id="left-goal">
      <rect id="left-goal-crease" x="2.85" y="7.5" width="4" height="5" stroke="#fff" fill="transparent" stroke-width="0.05"></rect>
      <rect id="left-goal-area" x="3.5" y="8.75" width="1" height="2.5" stroke="#fff" fill="transparent" stroke-width="0.05"></rect>
      <path id="left-goal-lines" d="M 3.5 9.2 L 3.175 9.2 M 3.175 10.8 L 3.5 10.8" stroke="#fff" fill="transparent" stroke-width="0.05"></path>
    </g>
    <g id="right-goal">
      <rect id="right-goal-crease" x="33.15" y="7.5" width="4" height="5" stroke="#fff" fill="transparent" stroke-width="0.05"></rect>
      <rect id="right-goal-area" x="35.5" y="8.75" width="1" height="2.5" stroke="#fff" fill="transparent" stroke-width="0.05"></rect>
      <path id="right-goal-lines" d="M 36.5 9.2 L 36.825 9.2 M 36.825 10.8 L 36.5 10.8" stroke="#fff" fill="transparent" stroke-width="0.05"></path>
    </g>
    <g id="faceoff-spots">
      <path id="top-left-faceoff" d="
        M 3.5 1.35
        L 3.5 1.65
        M 3.35 1.5
        L 3.65 1.5" stroke="#fff" fill="transparent" stroke-width="0.1"/>
      <path id="bottom-left-faceoff" d="
        M 3.5 18.35
          L 3.5 18.65
          M 3.35 18.5
          L 3.65 18.5" stroke="#fff" fill="transparent" stroke-width="0.1"/>
      <path id="top-center-faceoff" d="
        M 20 1.35
        L 20 1.65
        M 19.85 1.5
        L 20.15 1.5" stroke="#fff" fill="transparent" stroke-width="0.1"/>
      <path id="bottom-center-faceoff" d="
        M 20 18.35
          L 20 18.65
          M 19.85 18.5
          L 20.15 18.5" stroke="#fff" fill="transparent" stroke-width="0.1"/>
      <path id="top-right-faceoff" d="
            M 36.5 1.35
            L 36.5 1.65
            M 36.35 1.5
            L 36.65 1.5" stroke="#fff" fill="transparent" stroke-width="0.1"/>
      <path id="bottom-right-faceoff" d="
            M 36.5 18.35
              L 36.5 18.65
              M 36.35 18.5
              L 36.65 18.5" stroke="#fff" fill="transparent" stroke-width="0.1"/>
    </g>
    <path id="outside-perimeter" d="
    M 0 3
    A 3 3 0 0 1 3 0
    L 37 0
    A 3 3 0 0 1 40 3
    L 40 17
    A 3 3 0 0 1 37 20
    L 3 20
    A 3 3 0 0 1 0 17
    L 0 3" stroke="black" fill="transparent" stroke-width="0.05"></path>
  </g>
</svg>
