<svg id="handball-net-svg" xmlns="http://www.w3.org/2000/svg" width="100%" viewBox=" -1 -1 318 210">
  <g id="transformations">
    <clipPath id="clipBorder">
        <rect width="316" height="208" />
    </clipPath>
    <g id="frame">
        <rect width="316" height="208" fill="#bbbbbb" />
        <!-- top left -->
        <rect x="0" y="0" width="28" height="8" fill="#C8102e" />
        <rect x="0" y="0" width="8" height="28" fill="#C8102e" />
        <!-- top bar -->
        <rect x="48" y="0" width="20" height="8" fill="#C8102e" />
        <rect x="88" y="0" width="20" height="8" fill="#C8102e" />
        <rect x="128" y="0" width="20" height="8" fill="#C8102e" />
        <rect x="168" y="0" width="20" height="8" fill="#C8102e" />  
        <rect x="208" y="0" width="20" height="8" fill="#C8102e" />
        <rect x="248" y="0" width="20" height="8" fill="#C8102e" />          
        <!-- top right -->
        <rect x="288" y="0" width="28" height="8" fill="#C8102e" />
        <rect x="308" y="0" width="8" height="28" fill="#C8102e" />
        <!-- left bar -->
        <rect x="0" y="48" width="8" height="20" fill="#C8102e" />
        <rect x="0" y="88" width="8" height="20" fill="#C8102e" />
        <rect x="0" y="128" width="8" height="20" fill="#C8102e" />
        <rect x="0" y="168" width="8" height="20" fill="#C8102e" />
        <!-- right bar -->
        <rect x="308" y="48" width="8" height="20" fill="#C8102e" />
        <rect x="308" y="88" width="8" height="20" fill="#C8102e" />
        <rect x="308" y="128" width="8" height="20" fill="#C8102e" />
        <rect x="308" y="168" width="8" height="20" fill="#C8102e" />
    </g>
    <rect id="ground" x="-1" y="208" width="318" height="1" fill="black" />
    <rect x="8" y="8" width="300" height="200" fill="#f2f2f2" />
    <rect id="outside-perimeter" width="316" height="208" fill="transparent" />
  </g>
</svg>
