<svg id="ice-hockey-net-nhl-svg" xmlns="http://www.w3.org/2000/svg" width="100%" viewBox="-1 -1 80 56">
  <g id="transformations">
    <clipPath id="clipBorder">
    <rect x="0.5625" y="0.5625" width="76.75" height="50.875" />
    </clipPath>
    <rect x="0.5625" y="2.375" width="76.75" height="50.875" fill="#f2f2f2" />
    <g transform="translate(1.8125, 1.8125)">
    <!-- <path id="net-frame" d="
    M 0 49.1875
    A 20 3 0 0 1 74.375 49.1875
    M 37.1875 44.1875
    L 37.1875 0" stroke="#eee" stroke-width="2" fill="transparent" />
    <path id="net-mesh" d="
    M 11.6875 0
    L 11.6875 45
    M 61.6875 0
    L 61.6875 45
    M 13.4375 0
    L 13.4375 45
    M 59.9375 0
    L 59.9375 45
    " stroke="#eee" stroke-width="0.197" fill="transparent" /> -->
    <path id="posts" d="
    M 0 49.1875
    L 0 2
    A 2 2 0 0 1 2 0
    L 72.375 0
    A 2 2 0 0 1 74.375 2
    L 74.375 49.1875
    " fill="transparent" stroke="#C8102e" stroke-width="2.375" />
    <line id="floor" x1="-2" x2="76.375" y1="49.4375" y2="49.4375" stroke="#333" stroke-width="0.5" />
    </g>
    <rect id="outside-perimeter" width="78" height="54" fill="transparent" />
  </g>
</svg>
