<svg id="indoor-lacrosse-svg" xmlns="http://www.w3.org/2000/svg" width="100%" viewBox=" -1 -1 202 87">
  <g id="transformations">
    <clipPath id="clipBorder">
      <path d="M 0 28
            A 28 28 0 0 1 28 0
            L 172 0
            A 28 28 0 0 1 200 28
            L 200 57
            A 28 28 0 0 1 172 85
            L 29 85
            A 28 28 0 0 1 0 57
            L 0 28"/>
    </clipPath>
    <path id="background" d="M 0 28
      A 28 28 0 0 1 28 0
      L 172 0
      A 28 28 0 0 1 200 28
      L 200 57
      A 28 28 0 0 1 172 85
      L 28 85
      A 28 28 0 0 1 0 57
      L 0 28" fill="#036602" stroke="black" stroke-width="0.25" />
    <path id="line-change-area" d="M 64 0 L 64 3 L 136 3 L 136 0" stroke="white" stroke-width="0.167" fill="transparent" />
    <line id="center-line" y1="0" y2="85" x1="100" x2="100" stroke="white" stroke-width="0.4167" />
    <circle id="center-dot" cx="100" cy="42.5" r="0.35" stroke="white" stroke-width="0.167" fill="#036602" />
    <circle id="dotted-circle" cx="100" cy="42.5" r="1.417" stroke="white" stroke-width="0.167" fill="transparent" stroke-dasharray="0.45" />
    <circle id="outer-central-circle" cx="100" cy="42.5" r="11" stroke="white" stroke-width="0.4167" fill="transparent" />
    <path id="timer-crease" d="M 90 85 A 10 10 0 0 1 110 85" stroke="white" stroke-width="0.167" fill="transparent" />
    <g id="left-side">
      <line id="left-restraining-line" y1="0" y2="85" x1="57.5" x2="57.5" stroke="white" stroke-width="0.4167" />
      <circle id="left-upper-faceoff-dot" cx="42.5" cy="15" r="0.4167" fill="white" />
      <circle id="left-lower-faceoff-dot" cx="42.5" cy="70" r="0.4167" fill="white"/>
      <line id="left-goal-line" y1="33.25" y2="51.75" x1="12" x2="12" stroke="white" stroke-width="0.167" />
      <path id="left-goal-net" d="M 12 40.125 L 8.17777 42.5 L 12 44.875" stroke="orange" stroke-width="0.125" fill="transparent" />
      <path id="left-goal-crease" d="M 7.17778 34.60642 A 9.25 9.25 0 1 1 7.17778 50.39358 Z" stroke="white" stroke-width="0.4167" fill="transparent" />
    </g>
    <g id="right-side" transform="translate(200 85) rotate(180)">
      <line id="right-restraining-line" y1="0" y2="85" x1="57.5" x2="57.5" stroke="white" stroke-width="0.4167" />
      <circle id="right-upper-faceoff-dot" cx="42.5" cy="15" r="0.4167" fill="white" />
      <circle id="right-lower-faceoff-dot" cx="42.5" cy="70" r="0.4167" fill="white"/>
      <line id="right-goal-line" y1="33.5" y2="52" x1="12" x2="12" stroke="white" stroke-width="0.167" />
      <path id="right-goal-net" d="M 12 40.125 L 8.17777 42.5 L 12 44.875" stroke="orange" stroke-width="0.125" fill="transparent" />
      <path id="right-goal-crease" d="M 7.17778 34.60642 A 9.25 9.25 0 1 1 7.17778 50.39358 Z" stroke="white" stroke-width="0.4167" fill="transparent" />
    </g>
    <path id="outside-perimeter" d="M 0 28
      A 28 28 0 0 1 28 0
      L 172 0
      A 28 28 0 0 1 200 28
      L 200 57
      A 28 28 0 0 1 172 85
      L 28 85
      A 28 28 0 0 1 0 57
      L 0 28" fill="transparent" stroke="black" stroke-width="0.25" />
  </g>
</svg>