<svg id="mens-lacrosse-net-svg" xmlns="http://www.w3.org/2000/svg" width="100%" viewBox=" -1 -1 77.8 75.9">
  <g id="transformations">
    <clipPath id="clipBorder">
        <rect x="-1" width="77.8" height="74.9" />
    </clipPath>
    <rect x="1.9" y="1.9" width="72" height="72" fill="#f9f9f9" />

    <!-- <line id="horizon-line" x1="0" y1="36.95" x2="76" y2="36.95" stroke="blue" stroke-width="0.1" />
    <circle id="vanishing-point" cx="37.9" cy="36.95" r="1" fill="blue" />
    <line id="center-of-vision" x1="37.9" x2="37.9" y1="0" y2="74" stroke="blue" stroke-width="0.1" />

    <line id="picture-plane" x1="0" x2="76" y1="80" y2="80" stroke="red" stroke-width="0.1" />

    <path id="top-down" d="M 31.9 130 L 31.9 127 L 37.9 116 L 43.9 127 L 43.9 130" stroke="red" stroke-width="0.4" fill="transparent" />
    <path id="extra" d="M 31.9 130 L 31.9 116 43.9 116 L 43.9 130" stroke="red" stroke-width="0.2" fill="transparent" />
    <line x1="37.9" y1="139.69305" x2="0.95" y2="80" stroke-width="0.1" stroke="green" stroke-dasharray="0.5"/>
    <circle cx="0.95" cy="80" r="1" fill="green" />
    <circle cx="0.95" cy="36.95" r="1" fill="green" />
    
    <line x1="37.9" y1="139.69305" x2="9.68312" y2="80" stroke-width="0.1" stroke="purple" stroke-dasharray="0.5"/>
    <circle cx="9.68312" cy="80" r="1" fill="purple" />
    <circle cx="9.68312" cy="36.95" r="1" fill="purple" />
    <line x1="37.9" y1="139.69305" x2="66.11688" y2="80" stroke-width="0.1" stroke="purple" stroke-dasharray="0.5"/>
    <circle cx="66.11688" cy="80" r="1" fill="purple" />
    <circle cx="66.11688" cy="36.95" r="1" fill="purple" />
    <rect x="9.68312" y="8.73312" height="56.43376" width="56.43376" stroke-width="0.1" stroke="purple" stroke-dasharray="0.5" fill="transparent"/>

    <line x1="37.9" y1="139.69305" x2="74.85" y2="80" stroke-width="0.1" stroke="green" stroke-dasharray="0.5"/>
    <circle cx="74.85" cy="80" r="1" fill="green" />
    <circle cx="74.85" cy="36.95" r="1" fill="green" />

    <line x1="37.9" y1="139.69305" x2="22.7834" y2="80" stroke-width="0.1" stroke="magenta" stroke-dasharray="0.5"/>
    <circle cx="22.7834" cy="80" r="1" fill="magenta" />
    <circle cx="22.7834" cy="36.95" r="1" fill="magenta" />
    <line x1="37.9" y1="139.69305" x2="53.0166" y2="80" stroke-width="0.1" stroke="magenta" stroke-dasharray="0.5"/>
    <circle cx="53.0166" cy="80" r="1" fill="magenta" />
    <circle cx="53.0166" cy="36.95" r="1" fill="magenta" />
    <rect x="22.7834" y="21.8334" height="30.2332" width="30.2332" stroke-width="0.1" stroke="magenta" stroke-dasharray="0.5" fill="transparent"/>


    <circle id="vantage" cx="37.9" cy="139.69305" r="1" fill="blue" /> -->

    <path id="net-lines" d="M 0.95 0.95 L 37.9 52.0666 L 74.85 0.95" stroke="#dfdfdf" stroke-width="0.4" fill="transparent"/>

    <path id="back-poles" d="M 0.95 73.9 L 9.68312 65.16688 L 37.9 52.0666 L 66.11688 65.16688 L 74.85 73.9" stroke="#dbab53" stroke-width="1.9" fill="#d7ddd7"/>

    <path id="frame" d="M 0.95 73.9 L 0.95 0.95 L 74.85 0.95 L 74.85 73.9" stroke="orange" stroke-width="1.9" fill="transparent"/>

    <!-- <circle id="ball" cx="37.9" cy="35" r="1.25" fill="blue" /> -->

    <rect id="ground" x="-2" y="73.9" width="79" height="0.4" fill="#036602" />
    <rect id="outside-perimeter" width="75.8" height="73.9" fill="transparent" />
  </g>
</svg>

