<svg id="mens-lacrosse-svg" xmlns="http://www.w3.org/2000/svg" width="100%" viewBox=" -1 -1 112 62">
  <g id="transformations">
    <clipPath id="clipBorder">
      <rect id="background" x="0" width="110" y="0" height="60"/>
    </clipPath>
    <rect id="background" x="0" width="110" y="0" height="60" fill="#036602"/>
    <line id="center-line" x1="55" y1="0" x2="55" y2="60" stroke-width="0.111" stroke="white" fill="transparent"/>
    <rect id="center-line-square" x="54.9445" y="29.9445" width="0.111" height="0.111" fill="orange"/>
    <g id="lines">
      <line id="top-wing-area" x1="45" y1="10" x2="65" y2="10" stroke-width="0.083" stroke="white"/>
      <line id="bottom-wing-area" x1="45" y1="50" x2="65" y2="50" stroke-width="0.083" stroke="white"/>
      <line id="top-left-line" x1="0" y1="10" x2="35" y2="10" stroke-width="0.111" stroke="white"/>
      <line id="bottom-left-line" x1="0" y1="50" x2="35" y2="50" stroke-width="0.111" stroke="white"/>
      <line id="left-line" x1="35" y1="0" x2="35" y2="60" stroke-width="0.111" stroke="white"/>

      <line id="top-right-line" x1="75" y1="10" x2="110" y2="10" stroke-width="0.111" stroke="white"/>
      <line id="bottom-left-line" x1="75" y1="50" x2="110" y2="50" stroke-width="0.111" stroke="white"/>
      <line id="left-line" x1="75" y1="0" x2="75" y2="60" stroke-width="0.11" stroke="white"/>
    </g>
    <g id="right-goal">
      <circle id="right-goal-crease" cx="95" cy="30" r="3" fill="transparent" stroke-width="0.083" stroke="white"/>
      <path id="right-goal-mouth" d="M 95 28
             L 95 32
             A 2 2 1 1 1 95 28" stroke-width="0.056" fill="transparent" stroke="white"/>
             <clipPath id="right-goal-clip">
               <path d="M 95 29
                 L 95.66 28.66
                 L 97.33 30
                 L 95.66 31.33
                 L 95 31"/>
             </clipPath>
      <path
        id="right-goal-mesh"
        d="
          M 95.33 28
          L 95.33 32
          M 95.66 28
          L 95.66 32
          M 96 28
          L 96 32
          M 96.33 28
          L 96.33 32
          M 96.66 28
          L 96.66 32
          M 97 28
          L 97 32

          M 95 28.66
          L 98 28.66
          M 95 29
          L 98 29
          M 95 29.33
          L 98 29.33
          M 95 29.66
          L 98 29.66
          M 95 30
          L 98 30
          M 95 30.33
          L 98 30.33
          M 95 30.66
          L 98 30.66
          M 95 31
          L 98 31
          "
        stroke="#cccccc"
        stroke-width="0.03"
        fill="transparent"
        clip-path="url(#right-goal-clip)"/>
      <path id="right-goal-frame" d="
            M 95 29
            L 95.66 28.66
            L 97.33 30
            L 95.66 31.33
            L 95 31" stroke="orange" stroke-width="0.053" fill="transparent"/>
    </g>
      <g id="left-goal" transform="translate(-80 0) rotate(180,95,30)">
        <circle id="left-goal-crease" cx="95" cy="30" r="3" fill="transparent" stroke-width="0.083" stroke="white"/>
        <path id="left-goal-mouth" d="M 95 28
             L 95 32
             A 2 2 1 1 1 95 28" stroke-width="0.056" fill="transparent" stroke="white"/>
             <clipPath id="left-goal-clip">
               <path d="M 95 29
                 L 95.66 28.66
                 L 97.33 30
                 L 95.66 31.33
                 L 95 31"/>
             </clipPath>
        <path
          id="left-goal-mesh"
          d="
          M 95.33 28
          L 95.33 32
          M 95.66 28
          L 95.66 32
          M 96 28
          L 96 32
          M 96.33 28
          L 96.33 32
          M 96.66 28
          L 96.66 32
          M 97 28
          L 97 32

          M 95 28.66
          L 98 28.66
          M 95 29
          L 98 29
          M 95 29.33
          L 98 29.33
          M 95 29.66
          L 98 29.66
          M 95 30
          L 98 30
          M 95 30.33
          L 98 30.33
          M 95 30.66
          L 98 30.66
          M 95 31
          L 98 31
          "
          stroke="#cccccc"
          stroke-width="0.03"
          fill="transparent" clip-path="url(#left-goal-clip)"/>
        <path id="left-goal-frame" d="
            M 95 29
            L 95.66 28.66
            L 97.33 30
            L 95.66 31.33
            L 95 31" stroke="orange" stroke-width="0.053" fill="transparent"/>
      </g>
    <path id="border" d=" M 0 0 L 110 0 L 110 60 L 0 60 Z" stroke-width="0.11" stroke="orange" fill="transparent"/>
  </g>
</svg>
