<svg id ="netball-ssn-svg" xmlns="http://www.w3.org/2000/svg" width="100%" viewBox=" 0 0 30.5 15.25">
            <g id="transformations">
              <clipPath id="clipBorder">
                <rect x="0" y="0" width="30.5" height="15.25"></rect>
                </clipPath>
                <rect id="background" x="0" y="0" width="30.5" height="15.25" fill="#eacda6"></rect>
              <g id="center-markings">
                <circle id="center-circle" cx="15.625" cy="7.625" r="0.45" stroke="black" stroke-width="0.05" fill="transparent"></circle>
              </g>
              <g id="left-third">
                <line id="left-transverse-line" x1="10.167" y1="0" x2="10.167" y2="15.25" stroke="black" stroke-width="0.05"></line>
                <path id="left-goal-circle" fill="#e0ac67" stroke="black" stroke-width="0.05" d="
                  M 0 2.725
                  A 4.9 4.9 0 0 1 0 12.525">
                </path>
                <path id="left-super-zone" fill="#eacda6" stroke="black" stroke-width="0.05" d="
                  M 0 4.625
                  A 3 3 0 0 1 0 10.625">
                </path>
                <circle id="left-goal" cx="0.2" cy="7.625" r="0.2" fill="#eacda6" stroke="black" stroke-width="0.05"></circle>
              </g>
              <g id="right-third">
                <line id="right-transverse-line" x1="21.25" y1="0" x2="21.25" y2="15.25" stroke="black" stroke-width="0.05"></line>
                <path id="right-goal-circle" fill="#e0ac67" stroke="black" stroke-width="0.05" d="
                  M 30.5 2.725
                  A 4.9 4.9 0 0 0 30.5 12.525">
                </path>
                <path id="right-super-zone" fill="#eacda6" stroke="black" stroke-width="0.05" d="
                  M 30.5 4.625
                  A 3 3 0 0 0 30.5 10.625">
                </path>
                <circle id="right-goal" cx="30.3" cy="7.625" r="0.2" fill="#eacda6" stroke="black" stroke-width="0.05"></circle>
              </g>
              <path id="outside-perimeter" d="
    M 0 0
    L 30.5 0
    L 30.5 15.25
    L 0 15.25
    Z" stroke="#000" fill="transparent" stroke-width="0.05"></path>
              </g>
          </svg>
