<svg id="rugby-union-svg" xmlns="http://www.w3.org/2000/svg" width="100%" viewBox=" -1 -1 130 72">
  <g id="transformations">
    <clipPath id="clipBorder">
      <rect width="128" height="70" />
    </clipPath>
    <!-- <rect x='0' y="0" width="162" height="132"/> -->
    <rect id="background" width="128" height="70" fill="#036602" stroke="#ccc" stroke-width="0.5" />
    <rect id="left-in-goal" width="14" height="70" fill="black" opacity="0.15" />
    <rect id="right-in-goal" x="114" width="14" height="70" fill="black" opacity="0.15" />
    <line id="left-goal-line" x1="14" y1="0" x2="14" y2="70" stroke="white" stroke-width="0.25" />
    <path id="left-goal-posts" d="
    M 13.5 32.2
    L 14.5 32.2
    M 13.5 37.8
    L 14.5 37.8" stroke="#ccc" stroke-width="0.5" />
    <line id="left-five-m-goal-line-dash" x1="19" y1="2.5" x2="19" y2="70" stroke="white" stroke-width="0.25" stroke-dasharray="5" />
    <line id="left-twenty-two-m-line" x1="36" y1="0" x2="36" y2="70" stroke="white" stroke-width="0.25" />
    <line id="left-ten-m-line" x1="54" y1="2.5" x2="54" y2="70" stroke="white" stroke-width="0.25" stroke-dasharray="5" />
    <path id="left-five-m-touchline-dash" stroke="white" stroke-width="0.25" d="
    M 19 5
    L 24 5
    M 33.5 5
    L 38.5 5
    M 51.5 5
    L 56.5 5
    M 61.5 5
    L 66.5 5" />
    <path id="left-fifteen-m-touchline-dash" stroke="white" stroke-width="0.25" d="
    M 19 15
    L 24 15
    M 33.5 15
    L 38.5 15
    M 51.5 15
    L 56.5 15
    M 61.5 15
    L 66.5 15" />
    <path id="left-neg-five-m-touchline-dash" stroke="white" stroke-width="0.25" d="
    M 19 65
    L 24 65
    M 33.5 65
    L 38.5 65
    M 51.5 65
    L 56.5 65
    M 61.5 65
    L 66.5 65" />
    <path id="left-neg-fifteen-m-touchline-dash" stroke="white" stroke-width="0.25" d="
    M 19 55
    L 24 55
    M 33.5 55
    L 38.5 55
    M 51.5 55
    L 56.5 55
    M 61.5 55
    L 66.5 55" />
    <g transform="translate(128 70) rotate(180)">
      <line id="right-goal-line" x1="14" y1="0" x2="14" y2="70" stroke="white" stroke-width="0.25" />
    <path id="right-goal-posts" d="
    M 13.5 32.2
    L 14.5 32.2
    M 13.5 37.8
    L 14.5 37.8" stroke="#ccc" stroke-width="0.5" />
    <line id="right-five-m-goal-line-dash" x1="19" y1="2.5" x2="19" y2="70" stroke="white" stroke-width="0.25" stroke-dasharray="5" />
    <line id="right-twenty-two-m-line" x1="36" y1="0" x2="36" y2="70" stroke="white" stroke-width="0.25" />
    <line id="right-ten-m-line" x1="54" y1="2.5" x2="54" y2="70" stroke="white" stroke-width="0.25" stroke-dasharray="5" />
    <path id="right-five-m-touchline-dash" stroke="white" stroke-width="0.25" d="
    M 19 5
    L 24 5
    M 33.5 5
    L 38.5 5
    M 51.5 5
    L 56.5 5
    M 61.5 5
    L 66.5 5" />
    <path id="right-fifteen-m-touchline-dash" stroke="white" stroke-width="0.25" d="
    M 19 15
    L 24 15
    M 33.5 15
    L 38.5 15
    M 51.5 15
    L 56.5 15
    M 61.5 15
    L 66.5 15" />
    <path id="right-neg-five-m-touchline-dash" stroke="white" stroke-width="0.25" d="
    M 19 65
    L 24 65
    M 33.5 65
    L 38.5 65
    M 51.5 65
    L 56.5 65
    M 61.5 65
    L 66.5 65" />
    <path id="right-neg-fifteen-m-touchline-dash" stroke="white" stroke-width="0.25" d="
    M 19 55
    L 24 55
    M 33.5 55
    L 38.5 55
    M 51.5 55
    L 56.5 55
    M 61.5 55
    L 66.5 55" />
      </g>
    <line id="halfway-line" x1="64" y1="0" x2="64" y2="70" stroke="white" stroke-width="0.25" />
    <line id="halfway-tick" x1="63.75" y1="35" x2="64.25" y2="35" stroke="white" stroke-width="0.25" />
        <rect id="outside-perimeter" width="128" height="70" fill="transparent" stroke="#ccc" stroke-width="0.5" />
  </g>
</svg>
