<svg id="soccer-ifab-yd-svg" xmlns="http://www.w3.org/2000/svg" width="100%" viewBox=" -1 -1 117 77">
  <g id="transformations">
    <clipPath id="clipBorder">
      <rect width="115" height="75" />
    </clipPath>
    <rect id="background" width="115" height="75" stroke="transparent" fill="#036602" />
    <path id="halfway-line" d="M 57.5 0 L 57.5 75" stroke-width="0.138" stroke="white"></path>
    <circle id="halfway-circle" cx="57.5" cy="37.5" r="10" fill="transparent" stroke-width="0.138" stroke="white">
    </circle>
    <g id="left-goal">
      <path id="left-eighteen-yd-box" d="
        M 0 15.5
        L 18 15.5
        L 18 59.5
        L 0 59.5
        Z" stroke-width="0.138" stroke="white" fill="transparent"></path>
      <path id="left-goal-area" d="
        M 0 27.5
        L 6 27.5
        L 6 47.5
        L 0 47.5
        Z" stroke-width="0.138" stroke="white" fill="transparent"></path>
      <circle id="left-penalty-kick-mark" cx="12" cy="37.5" r="0.138" fill="white" />
      <!-- <circle cx="12" cy="37.5" r="10" stroke="yellow" fill="transparent" stroke-width="0.138" /> -->
      <path id="left-goal-arc" d="
        M 18 29.5
        A 10 10 1 0 1 18 45.5
        Z" stroke-width="0.138" stroke="white" fill="transparent"></path>
      <path id="left-goal-line" d="
      M 0 33.5
      L 0 41.5" stroke-width="0.75" stroke="white" />
      <path id="left-top-corner" d="
      M 1 0
      A 1 1 1 0 1 0 1
      " stroke-width="0.138" stroke="white" fill="transparent"></path>
      <path id="left-bottom-corner" d="
      M 0 74
      A 1 1 0 0 1 1 75
      " stroke-width="0.138" stroke="white" fill="transparent"></path>
    </g>
    <g id="right-goal" transform="translate(115 75) rotate(180)">
       <path id="right-eighteen-yd-box" d="
        M 0 15.5
        L 18 15.5
        L 18 59.5
        L 0 59.5
        Z" stroke-width="0.138" stroke="white" fill="transparent"></path>
      <path id="right-goal-area" d="
        M 0 27.5
        L 6 27.5
        L 6 47.5
        L 0 47.5
        Z" stroke-width="0.138" stroke="white" fill="transparent"></path>
      <circle id="right-penalty-kick-mark" cx="12" cy="37.5" r="0.138" fill="white" />
      <!-- <circle cx="12" cy="37.5" r="10" stroke="yellow" fill="transparent" stroke-width="0.138" /> -->
      <path id="right-goal-arc" d="
        M 18 29.5
        A 10 10 1 0 1 18 45.5
        Z" stroke-width="0.138" stroke="white" fill="transparent"></path>
      <path id="right-goal-line" d="
      M 0 33.5
      L 0 41.5" stroke-width="0.75" stroke="white" />
      <path id="right-top-corner" d="
      M 1 0
      A 1 1 1 0 1 0 1
      " stroke-width="0.138" stroke="white" fill="transparent"></path>
      <path id="right-bottom-corner" d="
      M 0 74
      A 1 1 0 0 1 1 75
      " stroke-width="0.138" stroke="white" fill="transparent"></path>
    </g>
         <rect id="outside-perimeter" width="115" height="75" stroke-width="0.138" stroke="white" fill="transparent" />
  </g>
</svg>