<svg id="soccer-ifab-m-svg" xmlns="http://www.w3.org/2000/svg" width="100%" viewBox=" -1 -1 107 70">
  <g id="transformations">
    <clipPath id="clipBorder">
      <path d="  M 0 0
        L 105 0
        L 105 68
        L 0 68
        Z" />
    </clipPath>
    <path id="background" d="
        M 0 0
        L 105 0
        L 105 68
        L 0 68
        Z" stroke="transparent" fill="#036602"></path>
    <path id="halfway-line" d="M 52.5 0 L 52.5 68" stroke-width="0.12" stroke="white"></path>
    <circle id="halfway-circle" cx="52.5" cy="34" r="9.15" fill="transparent" stroke-width="0.12" stroke="white">
    </circle>
    <g id="left-goal-area">
      <path id="left-eighteen-yd-box" d="
        M 0 13.84
        L 16.5 13.84
        L 16.5 54.16
        L 0 54.16
        Z" stroke-width="0.12" stroke="white" fill="transparent"></path>
      <path id="left-goal-area" d="
        M 0 24.84
        L 5.5 24.84
        L 5.5 43.16
        L 0 43.16
        Z" stroke-width="0.12" stroke="white" fill="transparent"></path>
      <circle id="left-penalty-kick-mark" cx="11" cy="34" r="0.12" fill="white" />
      <!-- <circle cx="11" cy="34" r="9.15" stroke="yellow" fill="transparent" stroke-width="0.12" /> -->
      <path id="left-goal-arc" d="
        M 16.5 26.688
        A 9.15 9.15 1 0 1 16.5 41.312
        Z" stroke-width="0.12" stroke="white" fill="transparent"></path>
      <path id="goal-line" d="
      M 0 30.34
      L 0 37.66" stroke-width="0.75" stroke="white" />
      <path id="top-left-corner" d="
      M 1 0
      A 1 1 1 0 1 0 1
      " stroke-width="0.12" stroke="white" fill="transparent"></path>
      <path id="top-right-corner" d="
      M 0 67
      A 1 1 0 0 1 1 68
      " stroke-width="0.12" stroke="white" fill="transparent"></path>
    </g>
    <g id="right-goal-area" transform="translate(105 68) rotate(180)">
       <path id="right-eighteen-yd-box" d="
        M 0 13.84
        L 16.5 13.84
        L 16.5 54.16
        L 0 54.16
        Z" stroke-width="0.12" stroke="white" fill="transparent"></path>
      <path id="right-goal-area" d="
        M 0 24.84
        L 5.5 24.84
        L 5.5 43.16
        L 0 43.16
        Z" stroke-width="0.12" stroke="white" fill="transparent"></path>
      <circle id="right-penalty-kick-mark" cx="11" cy="34" r="0.12" fill="white" />
      <!-- <circle cx="11" cy="34" r="9.15" stroke="yellow" fill="transparent" stroke-width="0.12" /> -->
      <path id="right-goal-arc" d="
        M 16.5 26.688
        A 9.15 9.15 1 0 1 16.5 41.312
        Z" stroke-width="0.12" stroke="white" fill="transparent"></path>
      <path id="right-goal-line" d="
      M 0 30.34
      L 0 37.66" stroke-width="0.75" stroke="white" />
      <path id="top-right-corner" d="
      M 1 0
      A 1 1 1 0 1 0 1
      " stroke-width="0.12" stroke="white" fill="transparent"></path>
      <path id="top-right-corner" d="
      M 0 67
      A 1 1 0 0 1 1 68
      " stroke-width="0.12" stroke="white" fill="transparent"></path>
    </g>
        <path id="outside-perimeter" d="
        M 0 0
        L 105 0
        L 105 68
        L 0 68
        Z" stroke-width="0.12" stroke="white" fill="transparent"></path>
  </g>
</svg>