<svg id="womens-lacrosse-svg" xmlns="http://www.w3.org/2000/svg" width="100%" viewBox=" -1 -1 122 67">
  <g id="transformations">
    <clipPath id="clipBorder">
      <rect id="background" x="0" width="120" y="0" height="65"/>
    </clipPath>
    <rect id="background" x="0" width="120" y="0" height="65" fill="#036602"/>
    <circle id="center-circle" cx="60" cy="32.5" r="10" stroke-width="0.111" stroke="white" fill="transparent"/>
    <line id="center-line" x1="60" y1="30.847" x2="60" y2="34.153" stroke-width="0.111" stroke="white"/>
    <g id="lines">
      <line id="left-line" x1="40" y1="0" x2="40" y2="65" stroke-width="0.11" stroke="orange"/>
      <line id="right-line" x1="80" y1="0" x2="80" y2="65" stroke-width="0.11" stroke="orange"/>
    </g>
    <g id="left-goal">
      <g id="left-goal-inner">
        <circle id="left-goal-circle" cx="10" cy="32.5" r="2.833" fill="transparent" stroke-width="0.083" stroke="white"/>
        <line id="left-goal-line" x1="10" y1="31.5" x2="10" y2="33.5" stroke-width="0.056" fill="transparent" stroke="white"/>
        <clipPath id="left-goal-clip">
          <path d="M 10 31.5
           L 7.67 32.5
           L 10 33.5"/>
        </clipPath>
        <path
          id="left-goal-mesh"
          d="
        M 8 31
        L 8 34
        M 8.33 31
        L 8.33 34
        M 8.66 31
        L 8.66 34
        M 9 31
        L 9 34
        M 9.33 31
        L 9.33 34
        M 9.66 31
        L 9.66 34

        M 7.5 31.66
        L 10 31.66
        M 7.5 32
        L 10 32
        M 7.5 32.33
        L 10 32.33
        M 7.5 32.66
        L 10 32.66
        M 7.5 33
        L 10 33
        M 7.5 33.33
        L 10 33.33
          "
          stroke="#cccccc"
          stroke-width="0.03"
          fill="transparent"
          clip-path="url(#left-goal-clip)"/>
        <path id="left-goal-frame" d="M 10 31.5
          L 7.67 32.5
          L 10 33.5" stroke="orange" stroke-width="0.053" fill="transparent"/>
      </g>
      <g id="left-goal-fan">
        <path id="left-eight-meter-arc" d="
          M 10 29.67
          L 16.66 23.01
          M 10 35.33
          L 16.66 42
          A 11.61 11.61 0 0 0 16.66 23.01
          " stroke-width="0.11" stroke="white" fill="transparent"/>
        <path
          id="left-arc-hashes"
          d="
              M 10 20.89
              L 10.33 20.89

              M 10 44.11
              L 10.33 44.11

              M 21.44 32.5
              L 21.77 32.5

              M 20.62 28.25
              L 20.94 28.13

              M 20.62 36.75
              L 20.94 36.87

              M 18.17 24.49
              L 18.41 24.25

              M 18.17 40.51
              L 18.41 40.75

              M 14.08 21.81
              L 14.2 21.49

              M 14.08 43.19
              L 14.2 43.5
              "
          stroke-width="0.11"
          stroke="white"
          fill="transparent"/>
        <path id="left-twelve-meter-fan" d="
          M 10 29.67
          L 10 16.58
          A 15.92 15.92 1 1 1 10 48.42
          L 10 35.33
          " stroke-width="0.083" stroke="white" fill="transparent"/>
        <circle id="top-left-circle" cx="5" cy="20.89" r="0.083" fill="white"/>
        <circle id="bottom-left-circle" cx="5" cy="44.11" r="0.083" fill="white"/>
      </g>
    </g>
    <g id="right-goal" transform="rotate(180,10,32.5) translate(-100 0)">
      <g id="right-goal-inner">
        <circle id="right-goal-circle" cx="10" cy="32.5" r="2.833" fill="transparent" stroke-width="0.083" stroke="white"/>
        <line id="right-goal-line" x1="10" y1="31.5" x2="10" y2="33.5" stroke-width="0.056" fill="transparent" stroke="white"/>
        <clipPath id="right-goal-clip">
          <path d="M 10 31.5
           L 7.67 32.5
           L 10 33.5"/>
        </clipPath>
        <path
          id="right-goal-mesh"
          d="
        M 8 31
        L 8 34
        M 8.33 31
        L 8.33 34
        M 8.66 31
        L 8.66 34
        M 9 31
        L 9 34
        M 9.33 31
        L 9.33 34
        M 9.66 31
        L 9.66 34

        M 7.5 31.66
        L 10 31.66
        M 7.5 32
        L 10 32
        M 7.5 32.33
        L 10 32.33
        M 7.5 32.66
        L 10 32.66
        M 7.5 33
        L 10 33
        M 7.5 33.33
        L 10 33.33
          "
          stroke="#cccccc"
          stroke-width="0.03"
          fill="transparent"
          clip-path="url(#right-goal-clip)"/>
        <path id="right-goal-frame" d="M 10 31.5
          L 7.67 32.5
          L 10 33.5" stroke="orange" stroke-width="0.053" fill="transparent"/>
      </g>
      <g id="right-goal-fan">
        <path id="right-eight-meter-arc" d="
          M 10 29.67
          L 16.66 23.01
          M 10 35.33
          L 16.66 42
          A 11.61 11.61 0 0 0 16.66 23.01
          " stroke-width="0.11" stroke="white" fill="transparent"/>
        <path
          id="right-arc-hashes"
          d="
              M 10 20.89
              L 10.33 20.89

              M 10 44.11
              L 10.33 44.11

              M 21.44 32.5
              L 21.77 32.5

              M 20.62 28.25
              L 20.94 28.13

              M 20.62 36.75
              L 20.94 36.87

              M 18.17 24.49
              L 18.41 24.25

              M 18.17 40.51
              L 18.41 40.75

              M 14.08 21.81
              L 14.2 21.49

              M 14.08 43.19
              L 14.2 43.5
              "
          stroke-width="0.11"
          stroke="white"
          fill="transparent"/>
        <path id="right-twelve-meter-fan" d="
          M 10 29.67
          L 10 16.58
          A 15.92 15.92 1 1 1 10 48.42
          L 10 35.33
          " stroke-width="0.083" stroke="white" fill="transparent"/>
        <circle id="top-right-circle" cx="5" cy="20.89" r="0.083" fill="white"/>
        <circle id="bottom-right-circle" cx="5" cy="44.11" r="0.083" fill="white"/>
      </g>
    </g>
    <path id="border" d=" M 0 0 L 120 0 L 120 65 L 0 65 Z" stroke-width="0.11" stroke="black" fill="transparent"/>
  </g>
</svg>
